<svg xmlns="http://www.w3.org/2000/svg" width="52.977" height="52.977" viewBox="0 0 52.977 52.977">
  <g id="ps-logo-white" transform="translate(-4.8 -1.1)">
    <path id="Path_34" data-name="Path 34" d="M57.49,27.545A26.045,26.045,0,1,1,31.445,1.5,26.015,26.015,0,0,1,57.49,27.545" transform="translate(0.065 0.043)" fill="#e21f26" fill-rule="evenodd"/>
    <path id="Path_35" data-name="Path 35" d="M37.491,20.531a32.454,32.454,0,0,1-2.66,3.214s-1,1.441.554,1.662a2.628,2.628,0,0,0,2.771-.887,3.613,3.613,0,0,0,1.33-3.325s-.665-1.662-1.995-.665" transform="translate(3.218 2.07)" fill="#fff" fill-rule="evenodd"/>
    <path id="Path_36" data-name="Path 36" d="M37.658,19.425s.222-3.1-3.214-2.106a1.612,1.612,0,0,0-.554.887s-2.106,3.99-2.327,4.1c-.111,0-1.441,1.33.111,1.884a2.779,2.779,0,0,0,3.436-.887,27.771,27.771,0,0,0,2.549-3.879" transform="translate(2.829 1.735)" fill="#fff" fill-rule="evenodd"/>
    <path id="Path_37" data-name="Path 37" d="M32.254,21.206a11.417,11.417,0,0,0,1.219-2.882,3.485,3.485,0,0,0,0-1.219s-.222-1.219-.554-2.327A1.2,1.2,0,0,0,31.7,14a1.469,1.469,0,0,0-1.773,1.441s-.554,2.549-.776,3.1a18.014,18.014,0,0,0-1.219,2.217c-.222.443-1,1.884,1.108,2.106a3.3,3.3,0,0,0,3.214-1.662" transform="translate(2.47 1.395)" fill="#fff" fill-rule="evenodd"/>
    <path id="Path_38" data-name="Path 38" d="M30.358,13.608C30.137,12.5,28.7,12.5,28.364,12.5a9.6,9.6,0,0,0-2.549.443,3.865,3.865,0,0,0-2.106,1.995s-.554,1.219,1.108.665l.665-.665s1.108,2.106,3.99.665a2.691,2.691,0,0,0,.887-1.995" transform="translate(2.038 1.235)" fill="#fff" fill-rule="evenodd"/>
    <path id="Path_39" data-name="Path 39" d="M10.2,32.187l1.33-.111-.222-.776Z" transform="translate(0.585 3.271)" fill="#fff" fill-rule="evenodd"/>
    <path id="Path_40" data-name="Path 40" d="M17.787,10.71a.733.733,0,0,0,.665-.111.609.609,0,0,0,.332-.554,2.213,2.213,0,0,0-.332-.887,1.477,1.477,0,0,0-.665-.554.733.733,0,0,0-.665.111c-.111.222-.222.332-.222.554a1.473,1.473,0,0,0,.332.776c.222.332.332.554.554.665" transform="translate(1.31 0.808)" fill="#fff" fill-rule="evenodd"/>
    <path id="Path_41" data-name="Path 41" d="M9.365,26.226c0-.111-.111-.111-.111-.222-.111,0-.111-.111-.222,0-.111,0-.222,0-.222.111-.111.111-.111.222-.111.443v.554h.776V26.67c0-.222,0-.332-.111-.443" transform="translate(0.422 2.692)" fill="#fff" fill-rule="evenodd"/>
    <path id="Path_42" data-name="Path 42" d="M14.484,14.352c.111-.222.222-.332.222-.443a.407.407,0,0,0-.111-.332c-.111-.111-.222-.332-.443-.443a1.473,1.473,0,0,0-.776-.332.566.566,0,0,0-.554.443l-.222.222,1.662,1.219Z" transform="translate(0.845 1.267)" fill="#fff" fill-rule="evenodd"/>
    <path id="Path_43" data-name="Path 43" d="M12.754,36a.407.407,0,0,0-.332.111c-.111.111-.111.222-.222.222a.838.838,0,0,0,.111.443l.222.222.665-.554-.111-.222c0-.111-.111-.222-.332-.222" transform="translate(0.801 3.78)" fill="#fff" fill-rule="evenodd"/>
    <path id="Path_44" data-name="Path 44" d="M44.73,36.808,43.843,35.7l-.443.665Z" transform="translate(4.18 3.747)" fill="#fff" fill-rule="evenodd"/>
    <path id="Path_45" data-name="Path 45" d="M44.83,13.6l-1.33.443.443.665Z" transform="translate(4.191 1.354)" fill="#fff" fill-rule="evenodd"/>
    <path id="Path_46" data-name="Path 46" d="M32.059,7.606a1.406,1.406,0,0,0,.665-.111c.222-.111.332-.443.332-.887,0-.332,0-.665-.111-.776a.942.942,0,0,0-.554-.332.831.831,0,0,0-.554.111,1.267,1.267,0,0,0-.332.776,2.365,2.365,0,0,0,0,.887c.222.222.332.332.554.332" transform="translate(2.887 0.477)" fill="#fff" fill-rule="evenodd"/>
    <path id="Path_47" data-name="Path 47" d="M31.288,1.1A26.488,26.488,0,1,0,57.777,27.588,26.488,26.488,0,0,0,31.288,1.1m0,51.647A25.078,25.078,0,0,1,13.445,9.966,24.524,24.524,0,0,1,31.178,2.652a25.048,25.048,0,0,1,.111,50.1" transform="translate(0 0)" fill="#fff" fill-rule="evenodd"/>
    <path id="Path_48" data-name="Path 48" d="M30.368,9.6A17.068,17.068,0,1,0,47.436,26.668,17.021,17.021,0,0,0,30.368,9.6M28.705,42.516a6.947,6.947,0,0,1,.111-1.219c.222-1.219.332-.222.332-.222v1.33c-.111.222-.222.222-.443.111m2.882.111c.222-1.662.332-3.768.332-3.768.222-1.219.332-.111.332-.111v3.879a.7.7,0,0,0-.665,0m4.433-1-.332-2.992a8.014,8.014,0,0,0-.776-2.327c1.108,0,2.438-1.662,2.438-1.662a5.7,5.7,0,0,0,.887-1.995l.222-.554c.665,0,2.438-3.1,2.438-3.1.111-1.552-1.108-.776-1.108-.776a4.537,4.537,0,0,1-4.1-.222c-.332-.332-1.33-.222-1.33-.222a3.6,3.6,0,0,1-2.882-.332c-.776,1.33.443,3.657.443,3.657a1.169,1.169,0,0,0-1,.443h0c-.111.887-.554,1.108-.554,1.108l-.443.222a6.177,6.177,0,0,0-.443-7.647,3.681,3.681,0,0,0-2.66-1.33c-.887.665-1.108.111-1.108.111-.111-.332-1-1.773-1-1.773a2.451,2.451,0,0,0,.222-1.662c-.554-.887,1.219-.443,1.219-.443,3.214-.111,4.212-2.106,4.212-2.106.887-1.552-.887-1.33-.887-1.33a19.973,19.973,0,0,1-2.66,0,11.117,11.117,0,0,0-3.325-.111L20.726,19.8c-.111.665-.665,7.98-.665,7.98l3.214,7.315c.111.554.443.554.443.554H24.6c.554.111.554.332.554.332l-.332.222c-.887.111-.776.776-.776.776-.111.776-.222,2.882-.222,2.882v1.33a15.977,15.977,0,1,1,12.191.443" transform="translate(0.921 0.921)" fill="#fff" fill-rule="evenodd"/>
    <path id="Path_49" data-name="Path 49" d="M30.961,3.3A24.218,24.218,0,0,0,6.8,27.461,24.336,24.336,0,0,0,31.072,51.733h0A24.216,24.216,0,0,0,30.961,3.3M53.792,25.023l-3.768.554L49.8,24.469l3.768-.554Zm-1.33-5.431-2.66.887.554,1.773-.887.332-1-2.882,3.547-1.219Zm-3.214-5.985.776,1L47.807,18.04l-.776-1,.443-.554L46.7,15.38l-.665.222-.665-1ZM45.7,9.839l.887.776L44.039,13.5l-.887-.776ZM39.273,8.066a1.892,1.892,0,0,1,1.108-1,1.7,1.7,0,0,1,1.441.222,2.053,2.053,0,0,1,.887.776,1.271,1.271,0,0,1,.111,1.108l-1-.332V8.62a.407.407,0,0,0-.111-.332c-.111-.111-.111-.222-.222-.222a.707.707,0,0,0-.665,0,1.107,1.107,0,0,0-.443.554,1.49,1.49,0,0,0-.222.887c0,.222.111.332.332.443a1,1,0,0,0,.554.111c.111-.111.332-.222.443-.443l.776.776a2.319,2.319,0,0,1-.665.443,1.406,1.406,0,0,1-.665.111,2.055,2.055,0,0,1-.776-.222,2.4,2.4,0,0,1-.776-.665,1.091,1.091,0,0,1-.332-.887,1.365,1.365,0,0,1,.222-1.108M33.067,6.4a1.818,1.818,0,0,1,.776-1.33,2.325,2.325,0,0,1,1.552-.222,1.628,1.628,0,0,1,1.33.776,2.325,2.325,0,0,1,.222,1.552,2.088,2.088,0,0,1-.443,1,1.988,1.988,0,0,1-.776.554,1.879,1.879,0,0,1-1.108,0,2.088,2.088,0,0,1-1-.443,1.988,1.988,0,0,1-.554-.776,1.849,1.849,0,0,1,0-1.108m-3.657.665c-.111-.111-.332-.111-.665-.222a4.492,4.492,0,0,1-1.108-.332,2.318,2.318,0,0,1-.443-.665,1,1,0,0,1,.111-.554.865.865,0,0,1,.443-.443,2.088,2.088,0,0,1,.887-.222,1.661,1.661,0,0,1,1.108.222,1.414,1.414,0,0,1,.554.776l-1.108.222c0-.222-.111-.332-.222-.332-.111-.111-.222-.111-.443-.111-.111,0-.222.111-.332.111-.111.111-.111.111-.111.222s0,.111.111.111.222.111.443.111a6.238,6.238,0,0,1,1.108.222,2.423,2.423,0,0,1,.554.332.847.847,0,0,1,.222.554,1.406,1.406,0,0,1-.111.665c-.111.222-.332.332-.554.554,0,.111-.332.111-.665.222a1.525,1.525,0,0,1-1.33-.222A2.413,2.413,0,0,1,27.3,7.4l1.108-.222a.576.576,0,0,0,.222.443.847.847,0,0,0,.554.222,1.116,1.116,0,0,0,.332-.111,1.116,1.116,0,0,0,.111-.332c0-.222-.111-.332-.222-.332M16.886,9.839a1.855,1.855,0,0,1,.887-1.219,1.985,1.985,0,0,1,1.441-.443,1.855,1.855,0,0,1,1.219.887,1.992,1.992,0,0,1,.443,1,2.161,2.161,0,0,1-.111.887,1.49,1.49,0,0,1-.665.776,1.992,1.992,0,0,1-1,.443,1.178,1.178,0,0,1-.887-.111,4.844,4.844,0,0,1-.887-.776,1.86,1.86,0,0,1-.443-1.441M12.9,13.386a2.938,2.938,0,0,1,.665-.554c.222-.111.443-.111.665-.222a.733.733,0,0,1,.665.111l.665.332a1.882,1.882,0,0,1,.665.665,1.575,1.575,0,0,1,.222.665.831.831,0,0,1-.111.554L16,15.6l-1,1.441-2.992-2.327Zm-2.438,3.879,3.436,1.552-.443,1.108-3.436-1.662ZM8.906,20.922l.887.222-.222,1.219,2.771.554-.222,1.108-2.771-.554L9.127,24.69l-.887-.222ZM8.13,28.791V27.9c.111-.222.111-.332.332-.443a.847.847,0,0,1,.554-.222.831.831,0,0,1,.554.111c.111.111.332.222.443.332s.111.222.222.443c0-.111.111-.222.111-.332l.222-.222.222-.222,1-.665.111,1.33-1.108.665c-.111.111-.222.111-.222.222a.407.407,0,0,0-.111.332v.111l1.552-.111.111,1.219-3.879.222ZM9.349,35l2.992-2.66.443,1.108-.554.443.443,1.219h.665l.443,1.108h-4.1Zm3.99,6.982-1.108-1.552a1.788,1.788,0,0,1-.332-1c0-.332.222-.554.554-.776a.977.977,0,0,1,.887-.222,1.039,1.039,0,0,1,.887.665l.332.554,1.108-.887.665,1ZM31.072,45.3A17.947,17.947,0,0,1,18.326,14.715,17.593,17.593,0,0,1,30.961,9.506,18.022,18.022,0,0,1,48.915,27.461,17.761,17.761,0,0,1,31.072,45.3m18.065-3.879-3.879-1.108.776-1,.665.222.776-1.108-.554-.443.665-1L49.8,40.428Zm2.549-4.1-.887-.332.443-1.108-2.66-1,.443-1.108,2.66,1,.443-1.108.887.332Zm1.773-6.65a1.259,1.259,0,0,1-.887.332V29.9a.485.485,0,0,0,.332-.111.554.554,0,0,0,0-.665c0-.111-.111-.111-.222-.111a.343.343,0,0,0-.222.111l-.222.443a3.726,3.726,0,0,1-.443,1.108.865.865,0,0,1-.443.443,1,1,0,0,1-.554.111,1.575,1.575,0,0,1-.665-.222,1.107,1.107,0,0,1-.443-.554,2.161,2.161,0,0,1-.111-.887,1.874,1.874,0,0,1,.443-1.33,1.355,1.355,0,0,1,1-.332v1.108c-.222,0-.332,0-.443.111-.222.111-.222.222-.222.554a.666.666,0,0,0,.111.443c.111.111.111.111.222.111s.222,0,.222-.111.222-.222.222-.554a2.067,2.067,0,0,1,.554-1.108.685.685,0,0,1,.776-.222c.222,0,.332.111.554.222s.222.332.332.554a2.46,2.46,0,0,1,.111,1c.332,0,.222.443,0,.665" transform="translate(0.217 0.238)" fill="#fff" fill-rule="evenodd"/>
  </g>
</svg>
